<svg width="33" height="30" viewBox="0 0 33 30" fill="none" xmlns="http://www.w3.org/2000/svg">
<path d="M6.25 13.75L21.075 13.75L16.5375 8.29998C16.3253 8.04471 16.2232 7.71561 16.2537 7.38507C16.2842 7.05454 16.4447 6.74965 16.7 6.53748C16.9553 6.3253 17.2844 6.22323 17.6149 6.2537C17.9454 6.28418 18.2503 6.44471 18.4625 6.69998L24.7125 14.2C24.7545 14.2596 24.7922 14.3223 24.825 14.3875C24.825 14.45 24.825 14.4875 24.9125 14.55C24.9692 14.6933 24.9988 14.8459 25 15C24.9988 15.1541 24.9692 15.3067 24.9125 15.45C24.9125 15.5125 24.9125 15.55 24.825 15.6125C24.7922 15.6777 24.7545 15.7403 24.7125 15.8L18.4625 23.3C18.345 23.4411 18.1978 23.5546 18.0314 23.6323C17.8651 23.7101 17.6836 23.7503 17.5 23.75C17.2079 23.7505 16.9249 23.6488 16.7 23.4625C16.5734 23.3575 16.4688 23.2287 16.3921 23.0832C16.3154 22.9378 16.2682 22.7787 16.2531 22.6149C16.238 22.4512 16.2553 22.2861 16.3041 22.1291C16.3529 21.9721 16.4322 21.8263 16.5375 21.7L21.075 16.25L6.25 16.25C5.91848 16.25 5.60054 16.1183 5.36611 15.8839C5.13169 15.6494 5 15.3315 5 15C5 14.6685 5.13169 14.3505 5.36611 14.1161C5.60054 13.8817 5.91848 13.75 6.25 13.75Z" fill="white"/>
</svg>
