<svg width="25" height="25" viewBox="0 0 25 25" fill="none" xmlns="http://www.w3.org/2000/svg">
<g id="jam:check">
<path id="Vector" d="M10.5761 17.2796C10.4448 17.2798 10.3148 17.2542 10.1935 17.2041C10.0721 17.154 9.96191 17.0804 9.86909 16.9876L5.62709 12.7446C5.53152 12.6524 5.45526 12.5421 5.40277 12.4201C5.35027 12.2982 5.3226 12.167 5.32135 12.0342C5.3201 11.9014 5.34531 11.7697 5.3955 11.6468C5.4457 11.5238 5.51987 11.4121 5.6137 11.3182C5.70752 11.2242 5.81912 11.1499 5.94198 11.0995C6.06484 11.0492 6.1965 11.0238 6.32928 11.0248C6.46206 11.0259 6.5933 11.0534 6.71534 11.1057C6.83738 11.158 6.94778 11.2341 7.04009 11.3296L10.5751 14.8646L16.9401 8.50156C17.1276 8.31392 17.382 8.20845 17.6472 8.20836C17.9125 8.20827 18.167 8.31355 18.3546 8.50106C18.5422 8.68857 18.6477 8.94294 18.6478 9.20821C18.6479 9.47348 18.5426 9.72792 18.3551 9.91556L11.2831 16.9876C11.1903 17.0804 11.08 17.154 10.9587 17.2041C10.8374 17.2542 10.7074 17.2798 10.5761 17.2796Z" fill="#2FAB73"/>
</g>
</svg>
